<?xml version="1.0" encoding="utf-8"?>
<!-- Generator: Adobe Illustrator 25.1.0, SVG Export Plug-In . SVG Version: 6.00 Build 0)  -->
<svg version="1.1" id="Layer_1" xmlns="http://www.w3.org/2000/svg" xmlns:xlink="http://www.w3.org/1999/xlink" x="0px" y="0px"
	 viewBox="0 0 184 237.1" style="enable-background:new 0 0 184 237.1;" xml:space="preserve">
<style type="text/css">
	.st0{fill:#E19A03;}
</style>
<path class="st0" d="M107.1,213.7c-0.2-0.3-0.3-0.4-0.3-0.5c-3.6-6.9-7.3-13.7-10.9-20.6c-5.1-9.6-10.2-19.2-15.2-28.8
	c-0.3-0.6-0.7-0.8-1.3-0.8c-2.8,0-5.5,0-8.3,0c-0.6,0-1.2,0-1.9,0c0,0.6,0,1,0,1.3c0,19.5,0,39,0,58.4c0,0.4,0,0.8,0.1,1.1
	c2.6,0,5.2,0,7.8,0c0-0.5,0.1-1.1,0.1-1.6c0-16.1,0-32.1,0-48.1c0-0.2,0-0.5,0-0.7c0.1,0,0.2-0.1,0.2-0.1
	c8.9,16.9,17.9,33.7,26.9,50.6c3.7,0,7.4,0,11.1,0c0-20.3,0-40.5,0-60.8c-2.7,0-5.3,0-8.1,0C107.1,180.1,107.1,196.8,107.1,213.7z"
	/>
<path class="st0" d="M92.2,6.3V99l72.2,75.9c0,0,11.9,12.4,5.3-2.4L92.2,6.3z"/>
<path class="st0" d="M92.2,6.3V99l-72.2,75.9c0,0-11.9,12.4-5.3-2.4L92.2,6.3z"/>
</svg>
